<?xml version="1.0" encoding="utf-8"?>
<!-- Svg Vector Icons : http://www.onlinewebfonts.com/icon -->
<!DOCTYPE svg PUBLIC "-//W3C//DTD SVG 1.1//EN" "http://www.w3.org/Graphics/SVG/1.1/DTD/svg11.dtd">
<svg version="1.1" xmlns="http://www.w3.org/2000/svg" xmlns:xlink="http://www.w3.org/1999/xlink" x="0px" y="0px" viewBox="0 0 256 256" enable-background="new 0 0 256 256" xml:space="preserve">
<metadata> Svg Vector Icons : http://www.onlinewebfonts.com/icon </metadata>
<g><g><path fill="#000000" d="M80.8,198.8c-13,0-23.6,10.6-23.6,23.6c0,13,10.6,23.6,23.6,23.6c13,0,23.6-10.6,23.6-23.6C104.4,209.4,93.8,198.8,80.8,198.8z M10,10v23.6h23.6l42.5,89.7l-16.5,28.3c-1.2,3.5-2.4,8.3-2.4,11.8c0,13,10.6,23.6,23.6,23.6h141.6v-23.6H85.5c-1.2,0-2.4-1.2-2.4-2.4v-1.2l10.6-20.1h87.3c9.4,0,16.5-4.7,20.1-11.8l42.5-76.7c2.4-2.4,2.4-3.5,2.4-5.9c0-7.1-4.7-11.8-11.8-11.8H59.6L48.9,10H10z M198.8,198.8c-13,0-23.6,10.6-23.6,23.6c0,13,10.6,23.6,23.6,23.6c13,0,23.6-10.6,23.6-23.6C222.4,209.4,211.8,198.8,198.8,198.8z"/></g></g>
</svg>